<?xml version="1.0" encoding="iso-8859-1"?>
<!-- Generator: Adobe Illustrator 19.0.0, SVG Export Plug-In . SVG Version: 6.00 Build 0)  -->
<svg version="1.1" id="Capa_1" xmlns="http://www.w3.org/2000/svg" xmlns:xlink="http://www.w3.org/1999/xlink" x="0px" y="0px"
	 viewBox="0 0 512.533 512.533" style="enable-background:new 0 0 512.533 512.533;" xml:space="preserve">
<path style="fill:#F3705B;" d="M406.6,62.4c-83.2-83.2-217.6-83.2-299.733,0c-83.2,83.2-83.2,216.533,0,299.733l149.333,150.4
	L405.533,363.2C488.733,280,488.733,145.6,406.6,62.4z"/>
<path style="fill:#F3F3F3;" d="M256.2,70.933c-77.867,0-141.867,62.933-141.867,141.867c0,77.867,62.933,141.867,141.867,141.867
	c77.867,0,141.867-62.933,141.867-141.867S334.066,70.933,256.2,70.933z"/>
<polygon style="fill:#FFD15D;" points="256.2,112.533 176.2,191.467 176.2,305.6 336.2,305.6 336.2,191.467 "/>
<g>
	<rect x="229.533" y="241.6" style="fill:#435B6C;" width="54.4" height="64"/>
	<path style="fill:#435B6C;" d="M356.466,195.733L264.733,104c-4.267-4.267-11.733-4.267-17.067,0l-91.733,91.733
		c-4.267,4.267-4.267,11.733,0,17.067c4.267,4.267,11.733,4.267,17.067,0l83.2-84.267l83.2,83.2c2.133,2.133,5.333,3.2,8.533,3.2
		c3.2,0,6.4-1.067,8.533-3.2C360.733,207.467,360.733,200,356.466,195.733z"/>
</g>
<g>
</g>
<g>
</g>
<g>
</g>
<g>
</g>
<g>
</g>
<g>
</g>
<g>
</g>
<g>
</g>
<g>
</g>
<g>
</g>
<g>
</g>
<g>
</g>
<g>
</g>
<g>
</g>
<g>
</g>
</svg>
